<svg viewBox="0 0 32 32" xmlns="http://www.w3.org/2000/svg" fill-rule="evenodd" clip-rule="evenodd" stroke-linejoin="round" stroke-miterlimit="2">
    <path fill="rgb(var(--color-coral-light))" fill-rule="nonzero" d="M5.227 15.27c0-6.025 4.892-10.917 10.917-10.917 6.026 0 10.918 4.892 10.918 10.917 0 3.134-1.308 6.355-4.533 9.032-3.909 3.245-9.15 3.688-17.254 3.153-2.406-.159-2.754-.57-1.511-1.487 3.907-2.884 1.463-5.09 1.463-10.698z"/>
    <path fill="rgb(var(--color-white))" fill-rule="nonzero" d="M15.774 17.842a1.876 1.876 0 01-.618 1.499 2.464 2.464 0 01-1.668.536c-.987 0-1.678-.312-2.072-.937l.907-.694c.14.19.316.353.516.478.2.102.423.15.647.141.318.016.63-.099.862-.319.221-.234.336-.55.319-.872v-.065a2.076 2.076 0 01-1.34.393 2.005 2.005 0 01-1.425-.608 2.039 2.039 0 010-2.925 2.017 2.017 0 011.446-.6c.478-.024.951.114 1.34.393V14h1.079l.007 3.842zm-1.434-1.125a1.11 1.11 0 000-1.593 1.154 1.154 0 00-.806-.31 1.2 1.2 0 00-.843.31 1.14 1.14 0 000 1.602c.23.209.533.32.843.31.299.005.588-.106.806-.31v-.009zM20.264 14.524c.443.417.685 1.005.665 1.612a2.088 2.088 0 01-.665 1.603c-.437.413-1.02.639-1.622.628a2.334 2.334 0 01-1.65-.628 2.264 2.264 0 01-.023-3.2l.024-.024a2.336 2.336 0 011.65-.628 2.297 2.297 0 011.62.637zm-.788 2.53a1.337 1.337 0 000-1.837 1.17 1.17 0 00-.834-.356 1.293 1.293 0 00-.862 2.193c.23.226.54.35.862.347.311-.004.609-.133.825-.356l.01.01z"/>
</svg>
