<svg viewBox="0 0 32 32" xmlns="http://www.w3.org/2000/svg" xml:space="preserve" style="fill-rule:evenodd;clip-rule:evenodd;stroke-linejoin:round;stroke-miterlimit:2">
    <path fill="currentColor" d="M25.66 4.73h5.03v15c0 7.16-5.7 9.46-10.55 9.46-2.4 0-6.8-.54-9.06-4.16-1.16-1.83-1.23-3.7-1.23-5.93v-5.76c.68.18 1.37.28 2.08.28 1.23 0 2.25-.28 3.08-.81v6.56c0 2.63.2 5.92 5.23 5.92.83 0 3.33-.03 4.66-2.1.5-.73.76-1.66.76-4.09V4.72v.01Z" transform="translate(1.701 4.852) scale(.75874)"/>
    <path fill="currentColor" d="M1.2.57A25.422 25.422 0 0 0 4.12 4.2c1.44 1.44 2.8 2.16 4.08 2.16.36 0 .66-.1.88-.26.21-.2.31-.46.31-.8 0-.18-.02-.4-.06-.66a3.76 3.76 0 0 1-.07-.55c0-1.05.38-1.97 1.12-2.74A4.002 4.002 0 0 1 13.4.2c1.33 0 2.41.4 3.25 1.21a4.202 4.202 0 0 1 1.24 3.16c0 1.6-.55 2.9-1.67 3.92A6.423 6.423 0 0 1 11.73 10c-2.86 0-5.46-1.15-7.8-3.44A26.136 26.136 0 0 1 .03 1.2L1.2.57Z" transform="translate(1.701 4.852) scale(.75874)"/>
</svg>
