<svg viewBox="0 0 32 32" xmlns="http://www.w3.org/2000/svg" fill-rule="evenodd" clip-rule="evenodd" stroke-linejoin="round" stroke-miterlimit="2">
    <path fill="currentColor" d="M5.227 15.27c0-6.025 4.892-10.917 10.917-10.917 6.026 0 10.918 4.892 10.918 10.917 0 3.134-1.308 6.355-4.533 9.032-3.909 3.245-9.15 3.688-17.254 3.153-2.406-.159-2.754-.57-1.511-1.487 3.907-2.884 1.463-5.09 1.463-10.698zm3.124 9.545c5.563.22 9.416-.239 12.398-2.678 2.432-1.99 3.481-4.427 3.51-6.867.05-4.477-3.636-8.113-8.115-8.113a8.118 8.118 0 00-8.113 8.113c0 2.711.607 4.598.725 6.158.093 1.215.03 2.318-.405 3.387z"/>
</svg>
