<svg viewBox="0 0 32 32" xmlns="http://www.w3.org/2000/svg" fill-rule="evenodd" clip-rule="evenodd" stroke-linejoin="round" stroke-miterlimit="2">
    <path fill="rgb(var(--color-sky-light))" fill-rule="nonzero" d="M20.341 22.455c.16.557.316 1.115.456 1.678.1.398.194.798.264 1.202l.003.016c-2.67 1.633-5.939 2.246-10.185 2.293.387-.495.955-1.36 1.666-2.827 3.198-.169 5.709-.819 7.796-2.363v.001z"/>
    <path fill="rgb(var(--color-coral-light)" fill-rule="nonzero" d="M15.353 4.382c.261-.019.525-.029.791-.029 5.327 0 9.767 3.823 10.726 8.872a.125.125 0 000 .028c-.476-.23-1.56-.64-3.066-.721-1.113-3.132-4.142-5.375-7.66-5.375-.604 0-1.193.066-1.76.192.161-1.661.594-2.527.93-2.961l.039-.006z"/>
    <path fill="rgb(var(--color-teal-light))" fill-rule="nonzero" d="M15.119 4.401c.068-.003.133-.007.195-.013-.336.434-.769 1.3-.93 2.961-3.633.805-6.353 4.048-6.353 7.921 0 .433.015.845.042 1.237-1.932-.654-2.702-1.141-2.843-1.452.107-5.581 4.414-10.143 9.889-10.654z"/>
    <path fill="rgb(var(--color-magenta-default))" fill-rule="nonzero" d="M5.23 15.045c.199.458 1.534 1.013 2.843 1.462.139 2.068.584 3.61.683 4.921.093 1.215.03 2.318-.405 3.387 1.52.06 2.912.069 4.194.002-.711 1.467-1.279 2.332-1.666 2.827-1.703.018-3.563-.054-5.604-.189-2.406-.159-2.754-.57-1.511-1.487 3.907-2.884 1.463-5.091 1.463-10.698l.003-.225z"/>
    <path fill="rgb(var(--color-lime-light))" fill-rule="nonzero" d="M23.804 12.532c1.506.081 2.59.491 3.066.721l.007.01c.121.651.185 1.322.185 2.007 0 3.134-1.308 6.355-4.533 9.032-.469.389-.956.737-1.465 1.049-.08-.478-.287-1.389-.723-2.896l.002-.003c.137-.101.272-.206.406-.315 2.432-1.99 3.481-4.427 3.509-6.867a7.89 7.89 0 00-.454-2.738z"/>
</svg>
