<svg viewBox="0 0 32 32" xmlns="http://www.w3.org/2000/svg" fill-rule="evenodd" clip-rule="evenodd" stroke-linejoin="round" stroke-miterlimit="2">
    <path fill="currentColor" d="M5.227 15.27c0-6.025 4.892-10.917 10.917-10.917 6.026 0 10.918 4.892 10.918 10.917 0 3.134-1.308 6.355-4.533 9.032-3.909 3.245-9.151 3.688-17.254 3.153-2.406-.159-2.754-.57-1.511-1.487 3.907-2.884 1.463-5.091 1.463-10.698zm10.547 2.572a1.877 1.877 0 01-.618 1.499 2.465 2.465 0 01-1.668.536c-.988 0-1.678-.312-2.072-.937l.908-.694c.14.191.315.353.515.478.2.102.423.15.647.141.318.016.63-.099.862-.319a1.18 1.18 0 00.319-.872v-.065a2.082 2.082 0 01-1.341.394 2.007 2.007 0 01-1.424-.609 2.038 2.038 0 01-.044-2.881l.044-.044a2.015 2.015 0 011.446-.601c.479-.023.951.115 1.34.394V14h1.078l.008 3.842zm4.49-3.318c.442.417.685 1.005.665 1.612a2.092 2.092 0 01-.665 1.603 2.302 2.302 0 01-1.622.628 2.337 2.337 0 01-1.649-.628 2.263 2.263 0 01-.024-3.2l.024-.024a2.333 2.333 0 011.649-.628 2.298 2.298 0 011.622.637zm-.788 2.531a1.337 1.337 0 000-1.838 1.173 1.173 0 00-.834-.356 1.3 1.3 0 00-1.228 1.292c0 .336.131.66.366.901.23.226.54.351.862.347.311-.004.608-.133.825-.356l.009.01zm-5.136-.338a1.111 1.111 0 00.03-1.564l-.03-.029a1.15 1.15 0 00-.806-.309 1.2 1.2 0 00-.843.309 1.139 1.139 0 000 1.602c.23.209.533.32.843.31.299.005.588-.106.806-.31v-.009z"/>
</svg>
